<svg id="svg" version="1.1" xmlns="http://www.w3.org/2000/svg" xmlns:xlink="http://www.w3.org/1999/xlink" width="400" height="400" viewBox="0, 0, 400,400"><g id="svgg"><path id="path0" d="M199.609 103.500 C 179.156 107.876,168.741 129.155,177.908 147.839 C 190.928 174.376,232.861 169.157,238.502 140.298 C 242.959 117.498,222.898 98.517,199.609 103.500 M201.785 116.070 C 202.826 116.559,204.362 117.643,205.198 118.479 L 206.718 120.000 207.949 118.835 C 217.612 109.691,232.170 117.708,231.445 131.774 C 231.201 136.506,230.339 137.748,220.753 147.186 C 206.073 161.641,207.597 161.355,197.269 151.595 C 184.330 139.367,183.554 138.428,182.423 133.635 C 179.682 122.011,191.540 111.254,201.785 116.070 M99.089 195.964 C 98.603 196.449,98.825 197.532,99.543 198.182 C 100.206 198.782,108.054 198.822,206.429 198.731 L 312.600 198.633 313.153 197.799 C 313.637 197.070,313.628 196.887,313.076 196.334 C 312.419 195.678,99.743 195.309,99.089 195.964 M248.967 210.742 C 248.966 212.676,249.032 213.516,249.114 212.609 C 249.195 211.703,249.196 210.121,249.116 209.094 C 249.035 208.067,248.968 208.809,248.967 210.742 M171.387 292.085 C 172.515 292.164,174.360 292.164,175.488 292.085 C 176.616 292.006,175.693 291.941,173.438 291.941 C 171.182 291.941,170.259 292.006,171.387 292.085 " stroke="none" fill="#9c615f" fill-rule="evenodd"></path><path id="path1" d="M200.586 99.608 C 183.295 102.094,170.319 117.675,171.211 134.884 C 172.406 157.973,191.910 172.484,215.408 167.766 C 228.926 165.052,240.508 152.312,242.213 138.281 C 245.100 114.517,225.237 96.063,200.586 99.608 M215.820 103.708 C 249.133 113.438,246.220 159.180,211.914 165.035 C 190.679 168.659,171.887 150.855,174.604 129.684 C 177.025 110.812,197.013 98.215,215.820 103.708 M138.281 109.297 C 138.281 109.495,137.243 110.931,135.973 112.489 C 132.737 116.459,132.813 115.864,132.813 137.420 C 132.813 157.805,132.670 160.804,131.684 161.123 C 129.290 161.899,128.533 168.750,130.842 168.750 C 132.107 168.750,132.422 170.008,132.422 175.061 L 132.422 180.145 130.566 178.508 C 125.472 174.015,119.635 172.905,113.252 175.216 C 111.657 175.793,109.125 176.376,107.625 176.512 L 104.899 176.758 106.438 178.459 C 109.391 181.722,114.653 182.463,117.722 180.048 C 119.359 178.761,119.061 178.125,116.820 178.125 C 113.890 178.125,114.102 177.458,117.095 177.261 C 122.915 176.878,132.031 182.288,132.031 186.125 C 132.031 186.237,128.727 186.328,124.688 186.328 C 116.908 186.328,116.406 186.440,116.406 188.174 C 116.406 189.827,117.242 189.878,142.348 189.760 L 166.211 189.648 168.538 188.559 C 176.145 184.997,179.056 177.073,175.140 170.590 C 172.127 165.601,164.853 164.936,161.022 169.299 C 158.077 172.654,160.593 175.206,163.618 171.933 C 166.082 169.267,168.560 169.046,171.025 171.273 C 175.820 175.606,173.329 183.078,166.262 185.562 C 164.004 186.355,134.763 186.795,134.767 186.035 C 134.770 185.361,136.467 183.039,138.156 181.397 C 140.620 179.003,146.706 175.938,144.787 178.058 C 143.159 179.857,146.012 181.372,150.908 181.309 C 154.421 181.263,154.477 181.240,154.160 179.975 C 152.562 173.609,143.762 172.339,137.616 177.589 L 135.547 179.357 135.547 174.510 C 135.547 169.800,135.573 169.649,136.480 169.164 C 138.777 167.935,139.003 163.925,136.896 161.818 L 135.511 160.432 135.626 142.619 L 135.742 124.805 137.408 121.460 C 139.574 117.109,140.105 114.593,139.481 111.628 C 139.080 109.720,138.281 108.169,138.281 109.297 M273.825 110.952 C 273.068 114.107,273.508 116.881,275.436 121.094 L 277.135 124.805 277.457 142.343 L 277.780 159.881 276.326 161.371 C 274.041 163.710,273.920 166.640,276.025 168.625 L 277.538 170.052 277.679 174.510 L 277.821 178.967 275.961 177.547 C 270.639 173.485,264.800 173.090,261.333 176.557 C 258.396 179.494,259.025 181.350,262.953 181.343 C 266.786 181.336,268.565 180.525,268.514 178.807 L 268.474 177.435 270.291 178.190 C 273.624 179.575,278.516 184.221,278.516 186.001 C 278.516 186.229,272.704 186.325,263.379 186.252 L 248.242 186.133 245.853 184.884 C 241.986 182.863,240.068 180.076,240.093 176.515 C 240.139 170.169,246.573 167.567,250.545 172.289 C 252.737 174.894,254.596 172.545,252.637 169.646 C 249.837 165.504,243.029 165.408,239.368 169.461 C 233.468 175.992,237.859 187.112,247.208 189.312 C 250.744 190.145,295.589 190.075,296.788 189.236 C 299.761 187.153,297.462 186.328,288.688 186.328 L 281.230 186.328 281.886 185.059 C 284.550 179.906,290.307 176.653,295.814 177.189 C 298.847 177.485,298.904 177.821,295.972 178.118 L 293.945 178.323 295.153 179.560 C 298.190 182.669,304.993 181.694,307.804 177.747 L 308.647 176.563 306.374 176.564 C 304.766 176.564,302.911 176.150,300.027 175.144 C 293.554 172.888,287.604 174.092,282.520 178.688 L 280.469 180.541 280.469 175.241 C 280.469 169.989,280.478 169.934,281.465 169.287 C 284.243 167.467,284.256 163.011,281.489 161.197 L 280.516 160.560 280.395 138.776 C 280.254 113.499,280.686 115.705,274.617 109.246 C 274.449 109.067,274.093 109.835,273.825 110.952 M243.744 112.712 C 243.160 114.248,244.346 116.602,245.703 116.602 C 247.046 116.602,247.193 115.039,246.014 113.298 C 244.844 111.571,244.237 111.415,243.744 112.712 M167.285 112.988 C 165.772 114.609,165.937 117.188,167.553 117.188 C 168.518 117.188,169.922 115.480,169.922 114.308 C 169.922 112.122,168.675 111.498,167.285 112.988 M121.875 118.952 C 121.875 123.094,122.795 124.359,126.061 124.706 C 127.089 124.816,128.265 125.044,128.675 125.214 C 130.782 126.084,128.188 119.311,125.894 117.949 C 125.187 117.530,123.994 116.822,123.242 116.374 L 121.875 115.561 121.875 118.952 M288.688 117.088 C 285.907 118.707,284.236 120.912,283.757 123.595 L 283.484 125.119 286.176 124.853 C 290.566 124.419,291.554 123.130,291.326 118.138 L 291.211 115.619 288.688 117.088 M193.029 120.129 C 187.367 122.588,184.816 129.584,187.605 135.007 C 188.792 137.315,205.881 154.046,206.835 153.834 C 207.840 153.611,224.175 137.832,225.436 135.866 C 228.695 130.789,226.452 123.001,220.966 120.345 C 216.634 118.248,211.277 120.319,208.418 125.196 C 207.243 127.203,206.216 127.462,205.518 125.928 C 203.272 120.998,197.355 118.251,193.029 120.129 M248.574 120.322 C 246.754 121.030,246.577 124.859,248.255 127.246 C 249.071 128.408,249.762 128.355,250.791 127.051 C 252.622 124.732,250.874 119.428,248.574 120.322 M162.871 120.922 C 161.149 122.997,162.614 128.247,164.727 127.576 C 166.324 127.069,167.241 122.375,166.028 120.914 C 165.382 120.135,163.520 120.140,162.871 120.922 M143.945 123.395 C 142.051 124.269,139.063 127.730,139.063 129.050 C 139.063 129.459,143.673 129.328,145.505 128.866 C 148.018 128.233,150.781 125.275,150.781 123.217 C 150.781 122.351,145.933 122.477,143.945 123.395 M262.718 123.535 C 263.236 125.212,264.041 126.475,265.232 127.477 C 266.480 128.527,267.206 128.715,271.591 129.118 L 274.237 129.361 273.557 127.864 C 271.727 123.835,269.893 122.679,265.306 122.665 C 262.520 122.656,262.454 122.679,262.718 123.535 M161.193 130.402 C 160.271 131.421,160.391 132.243,161.600 133.193 C 162.783 134.124,164.368 134.111,164.960 133.166 C 166.248 131.107,162.827 128.596,161.193 130.402 M249.855 130.890 C 248.084 132.283,247.878 133.069,248.991 134.182 C 250.206 135.398,250.438 135.395,251.923 134.145 C 254.359 132.095,252.347 128.929,249.855 130.890 M118.109 135.529 C 116.732 135.857,114.063 137.401,114.063 137.868 C 114.063 138.723,120.211 140.753,123.340 140.930 C 127.063 141.142,127.250 140.918,125.572 138.259 C 123.844 135.523,121.591 134.698,118.109 135.529 M145.313 135.571 C 144.058 136.095,141.506 138.555,140.778 139.941 L 140.214 141.016 143.553 141.016 C 146.442 141.016,147.363 140.831,150.391 139.648 C 152.315 138.896,154.157 138.281,154.484 138.281 C 155.692 138.281,155.017 137.527,152.865 136.475 C 150.447 135.292,146.976 134.877,145.313 135.571 M261.747 136.164 C 259.281 137.284,259.281 137.285,263.538 139.418 C 266.481 140.894,266.966 141.016,269.885 141.016 C 273.507 141.016,273.482 141.050,271.656 138.560 C 269.037 134.990,265.968 134.248,261.747 136.164 M289.908 135.816 C 288.775 136.374,285.938 139.877,285.938 140.717 C 285.938 141.858,292.114 140.958,295.354 139.345 L 298.709 137.675 297.794 136.985 C 295.471 135.233,292.105 134.734,289.908 135.816 M161.764 137.464 C 160.355 138.356,162.636 141.016,164.811 141.016 C 165.559 141.016,166.406 139.989,166.406 139.082 C 166.406 137.926,162.941 136.718,161.764 137.464 M247.858 139.055 C 246.700 140.335,247.436 141.956,249.246 142.109 C 251.116 142.267,252.262 141.078,251.724 139.539 C 251.227 138.115,248.965 137.832,247.858 139.055 M165.392 144.830 C 164.029 145.744,164.551 148.996,166.427 151.270 C 168.435 153.705,170.499 153.079,170.049 150.171 C 169.482 146.502,167.053 143.717,165.392 144.830 M245.313 146.875 C 243.703 148.485,244.931 150.423,247.050 149.617 C 248.176 149.189,249.054 147.636,248.696 146.705 C 248.360 145.827,246.254 145.933,245.313 146.875 M108.789 147.927 C 103.985 150.509,102.041 155.032,103.706 159.752 C 107.756 171.231,124.911 165.496,121.416 153.831 C 119.939 148.902,113.006 145.660,108.789 147.927 M148.137 148.092 C 141.290 151.481,141.353 161.406,148.241 164.665 C 156.149 168.406,164.451 160.376,160.794 152.523 C 158.616 147.846,152.769 145.799,148.137 148.092 M256.915 148.083 C 252.158 150.593,250.310 155.715,252.488 160.352 C 256.416 168.715,269.173 166.482,270.214 157.248 C 271.001 150.263,263.101 144.818,256.915 148.083 M297.020 147.828 C 288.393 151.583,290.625 164.960,300.095 166.258 C 308.295 167.382,313.698 155.585,307.569 149.942 C 304.778 147.374,300.182 146.452,297.020 147.828 M115.442 151.354 C 117.384 152.492,118.359 154.293,118.359 156.740 C 118.359 162.747,109.957 164.703,107.311 159.312 C 104.547 153.679,110.113 148.231,115.442 151.354 M154.972 151.158 C 159.118 153.040,159.350 158.906,155.375 161.330 C 153.440 162.510,150.401 162.396,148.844 161.086 C 143.220 156.354,148.297 148.128,154.972 151.158 M264.516 151.607 C 269.165 154.918,266.919 162.057,261.192 162.172 C 256.532 162.266,253.710 157.885,255.712 153.665 C 257.192 150.546,261.584 149.519,264.516 151.607 M303.307 150.946 C 306.528 152.292,307.857 157.121,305.761 159.868 C 302.124 164.637,294.922 162.420,294.922 156.531 C 294.922 152.080,299.200 149.230,303.307 150.946 M241.859 152.864 C 241.030 153.746,241.026 153.794,241.724 154.426 C 243.078 155.651,245.703 155.161,245.703 153.683 C 245.703 151.912,243.245 151.388,241.859 152.864 M171.322 156.110 C 170.718 157.683,173.499 159.717,174.459 158.404 C 175.068 157.571,174.515 156.510,173.147 155.887 C 171.906 155.322,171.611 155.358,171.322 156.110 M177.479 163.100 C 177.062 164.188,179.466 166.226,180.636 165.777 C 181.572 165.418,181.370 164.213,180.221 163.310 C 179.004 162.353,177.802 162.261,177.479 163.100 M234.375 162.776 C 232.349 163.517,231.458 165.466,232.971 165.846 C 234.761 166.295,236.913 164.261,235.917 163.061 C 235.421 162.464,235.293 162.440,234.375 162.776 M277.930 165.625 C 277.741 165.931,277.516 165.953,277.256 165.693 C 277.041 165.478,276.993 165.096,277.148 164.844 C 277.337 164.538,277.562 164.515,277.823 164.776 C 278.037 164.991,278.086 165.373,277.930 165.625 M135.547 165.234 C 135.547 165.449,135.283 165.625,134.961 165.625 C 134.639 165.625,134.375 165.449,134.375 165.234 C 134.375 165.020,134.639 164.844,134.961 164.844 C 135.283 164.844,135.547 165.020,135.547 165.234 M280.785 165.264 C 280.708 165.495,280.478 165.684,280.273 165.684 C 280.069 165.684,279.839 165.495,279.762 165.264 C 279.685 165.033,279.915 164.844,280.273 164.844 C 280.632 164.844,280.861 165.033,280.785 165.264 M183.609 168.145 C 182.519 169.458,184.360 171.331,186.254 170.836 C 187.445 170.524,187.850 168.800,186.897 168.103 C 185.951 167.411,184.200 167.434,183.609 168.145 M227.085 168.430 C 225.573 169.162,225.729 171.067,227.344 171.581 C 228.389 171.914,230.078 170.771,230.078 169.730 C 230.078 168.267,228.678 167.660,227.085 168.430 M191.484 171.953 C 190.477 172.960,191.069 174.412,192.648 174.808 C 194.311 175.225,195.467 173.261,194.175 172.215 C 193.138 171.375,192.158 171.279,191.484 171.953 M220.045 171.906 C 218.392 172.517,218.424 174.157,220.104 174.923 C 221.456 175.539,222.881 174.386,222.524 172.964 C 222.245 171.854,221.289 171.446,220.045 171.906 M203.297 173.632 C 202.063 174.585,214.734 186.429,219.432 188.714 C 221.417 189.680,225.569 189.788,227.237 188.917 C 231.776 186.546,232.032 179.922,227.584 179.922 C 225.161 179.922,224.217 181.639,225.781 183.203 C 226.780 184.202,226.764 184.580,225.694 185.329 C 222.983 187.228,219.577 185.466,211.125 177.793 C 210.261 177.009,208.727 175.620,207.716 174.707 C 205.767 172.948,204.563 172.655,203.297 173.632 M198.249 181.474 C 193.843 185.563,190.004 186.946,187.866 185.215 L 186.973 184.492 187.851 183.259 C 189.507 180.934,187.647 178.914,185.008 180.172 C 181.469 181.860,182.743 187.686,186.955 189.076 C 191.378 190.536,195.398 188.861,201.660 182.948 C 203.737 180.988,203.907 180.396,202.647 179.514 C 201.387 178.632,201.243 178.696,198.249 181.474 M181.250 212.299 C 181.250 218.427,181.394 218.774,182.959 216.410 C 184.790 213.642,188.751 211.732,192.676 211.723 L 194.531 211.719 194.527 230.957 L 194.522 250.195 193.550 251.895 C 193.015 252.830,192.578 253.665,192.578 253.751 C 192.578 253.836,195.566 253.906,199.219 253.906 C 202.871 253.906,205.859 253.856,205.859 253.794 C 205.859 253.732,205.508 252.991,205.078 252.148 C 204.328 250.677,204.297 249.845,204.297 231.123 L 204.297 211.629 206.934 211.851 C 211.692 212.252,214.664 213.869,216.299 216.945 C 216.583 217.480,216.743 216.258,216.887 212.453 C 216.996 209.579,217.064 207.207,217.039 207.183 C 217.013 207.159,208.950 207.025,199.121 206.884 L 181.250 206.629 181.250 212.299 M87.985 207.291 C 87.658 207.423,88.014 208.081,89.041 209.249 C 91.839 212.427,91.797 211.941,91.797 240.994 C 91.797 266.057,91.774 266.874,91.016 268.359 C 89.997 270.356,89.979 270.313,91.826 270.313 C 99.720 270.313,113.389 267.504,118.945 264.741 C 144.790 251.888,142.479 213.093,115.544 207.641 C 112.616 207.048,89.321 206.753,87.985 207.291 M155.291 208.462 C 156.069 209.608,156.210 210.170,156.000 211.294 C 155.354 214.751,140.972 257.179,139.735 259.276 C 138.777 260.900,138.939 260.908,145.221 259.572 C 152.361 258.053,151.667 258.335,150.955 257.248 C 150.003 255.796,150.150 254.523,151.948 248.633 C 152.866 245.625,153.703 242.767,153.808 242.281 C 153.915 241.786,154.365 241.321,154.831 241.222 C 157.466 240.666,160.308 240.249,162.891 240.040 C 164.502 239.910,166.271 239.717,166.822 239.613 C 168.889 239.221,172.314 251.950,170.885 254.714 L 170.285 255.873 171.764 255.685 C 177.217 254.993,179.769 254.683,181.738 254.477 C 184.236 254.214,184.323 254.122,183.193 252.919 C 182.705 252.400,180.447 246.031,177.298 236.293 C 174.490 227.611,171.441 218.223,170.523 215.430 C 168.865 210.391,168.815 208.203,170.355 208.203 C 170.500 208.203,170.721 207.939,170.844 207.617 C 171.040 207.108,169.978 207.031,162.695 207.031 L 154.320 207.031 155.291 208.462 M221.803 208.136 C 223.481 209.703,223.489 209.825,223.359 231.315 L 223.242 250.717 222.363 251.905 C 221.010 253.735,221.193 253.906,224.512 253.910 C 227.200 253.913,232.742 254.302,238.477 254.891 C 247.759 255.844,251.802 256.249,252.051 256.249 C 252.212 256.250,252.344 253.701,252.344 250.586 C 252.344 247.471,252.255 244.922,252.147 244.922 C 252.039 244.922,251.292 245.653,250.487 246.546 C 247.859 249.462,246.088 249.992,238.965 249.996 L 232.813 250.000 232.813 239.644 L 232.813 229.288 234.473 229.508 C 238.325 230.019,238.945 230.181,240.499 231.083 C 241.396 231.604,242.645 232.655,243.275 233.419 L 244.419 234.808 244.671 232.974 C 245.005 230.537,244.993 221.295,244.656 220.958 C 244.510 220.812,243.938 221.118,243.386 221.639 C 241.540 223.381,239.358 224.220,235.999 224.479 L 232.813 224.725 232.813 218.171 L 232.813 211.617 237.988 211.804 C 243.828 212.015,245.216 212.429,247.404 214.618 L 248.828 216.042 248.828 211.536 L 248.828 207.031 234.724 207.031 L 220.621 207.031 221.803 208.136 M257.731 207.643 C 260.123 209.319,260.112 209.209,260.237 232.471 L 260.352 253.711 259.452 255.233 C 258.296 257.189,258.271 257.174,264.258 258.133 C 270.718 259.168,284.616 261.845,287.752 262.659 C 289.072 263.001,290.346 263.281,290.584 263.281 C 290.880 263.281,291.016 261.437,291.016 257.408 L 291.016 251.535 289.826 252.891 C 288.111 254.843,285.768 255.637,282.720 255.300 C 279.826 254.979,271.588 253.193,270.596 252.671 C 269.943 252.327,269.909 251.061,270.010 230.806 L 270.117 209.307 271.166 208.405 C 272.703 207.084,272.441 207.031,264.301 207.031 C 257.434 207.031,256.925 207.079,257.731 207.643 M285.238 208.903 C 286.611 210.371,288.562 213.956,294.276 225.511 L 301.563 240.247 301.563 251.905 L 301.563 263.563 300.586 265.002 C 300.049 265.793,299.609 266.498,299.609 266.568 C 299.609 266.778,307.528 268.626,313.178 269.734 L 314.443 269.982 313.276 267.764 L 312.109 265.546 312.109 252.667 L 312.109 239.788 314.652 234.788 C 319.131 225.980,328.744 210.313,330.826 208.428 C 332.263 207.128,331.776 207.031,323.775 207.031 L 315.910 207.031 316.900 207.810 C 319.230 209.643,316.706 216.832,308.809 230.849 C 307.880 232.499,307.620 232.200,305.353 226.866 C 304.142 224.013,302.090 219.259,300.794 216.301 C 298.233 210.455,298.036 209.469,299.219 208.398 C 300.623 207.128,300.096 207.031,291.743 207.031 L 283.487 207.031 285.238 208.903 M112.235 213.084 C 128.448 217.307,132.173 244.141,118.355 257.176 C 114.470 260.842,108.608 263.281,103.685 263.281 L 102.344 263.281 102.344 237.891 L 102.344 212.500 106.168 212.500 C 108.302 212.500,110.983 212.758,112.235 213.084 M161.986 218.848 C 162.206 219.761,163.202 223.272,164.201 226.651 C 166.480 234.366,166.508 233.876,163.770 234.164 C 162.534 234.293,160.223 234.573,158.633 234.784 C 155.192 235.242,155.331 235.328,156.034 233.172 C 156.712 231.091,160.383 219.305,160.738 218.066 C 161.119 216.739,161.543 217.004,161.986 218.848 M266.377 224.555 C 266.878 225.490,266.056 226.704,265.055 226.507 C 263.961 226.292,263.416 225.193,264.035 224.447 C 264.729 223.611,265.901 223.666,266.377 224.555 M132.393 229.243 C 132.893 230.178,132.071 231.391,131.071 231.195 C 129.976 230.980,129.432 229.880,130.051 229.134 C 130.744 228.299,131.917 228.353,132.393 229.243 M97.969 240.313 C 99.256 241.600,97.660 243.715,96.270 242.563 C 95.535 241.952,95.551 241.224,96.317 240.458 C 97.054 239.721,97.351 239.695,97.969 240.313 M182.031 261.989 C 162.158 263.742,149.035 267.247,126.836 276.734 C 113.244 282.542,111.115 283.252,106.576 283.494 C 101.081 283.787,98.938 282.916,102.373 281.787 C 104.882 280.962,104.101 278.425,101.187 277.932 C 95.448 276.963,93.540 284.824,98.849 287.562 C 103.887 290.161,111.429 288.621,128.320 281.545 C 146.750 273.824,157.457 270.879,176.172 268.384 C 179.502 267.940,182.842 267.490,183.594 267.385 C 184.346 267.279,188.389 267.083,192.578 266.950 C 202.183 266.644,204.368 265.644,202.080 262.597 L 201.273 261.523 194.289 261.523 C 190.448 261.523,184.932 261.733,182.031 261.989 M213.609 261.958 C 212.812 262.865,212.651 263.614,213.022 264.704 C 213.527 266.186,214.604 266.393,225.000 267.005 C 231.131 267.365,239.036 268.288,245.508 269.397 C 247.441 269.729,249.551 270.088,250.195 270.195 C 257.605 271.426,270.769 275.701,281.836 280.470 C 300.113 288.347,307.464 290.105,312.224 287.740 C 316.067 285.831,315.671 278.798,311.671 277.919 C 307.997 277.112,305.597 280.477,308.871 281.845 C 311.172 282.806,310.290 283.386,306.339 283.510 C 302.089 283.644,301.419 283.415,285.724 276.456 C 269.810 269.400,265.030 267.752,252.148 264.876 C 238.931 261.924,215.218 260.130,213.609 261.958 M187.921 275.494 C 186.721 276.106,186.566 276.595,187.268 277.555 C 187.925 278.454,224.949 278.989,226.568 278.122 C 227.723 277.504,227.587 275.854,226.342 275.381 C 224.769 274.783,189.109 274.888,187.921 275.494 M151.758 283.670 C 150.219 284.543,150.068 285.225,151.172 286.328 C 152.420 287.576,201.208 287.552,202.083 286.303 C 202.821 285.249,202.515 284.188,201.316 283.641 C 199.950 283.019,152.858 283.046,151.758 283.670 M212.695 283.486 C 211.010 283.900,210.330 285.564,211.406 286.641 C 212.203 287.437,260.487 287.303,261.632 286.501 C 262.707 285.748,262.733 284.999,261.719 283.984 C 260.968 283.233,215.599 282.772,212.695 283.486 M163.893 292.940 C 161.434 295.657,163.626 296.184,176.364 295.937 C 188.515 295.702,190.122 295.256,187.667 292.801 C 186.630 291.764,164.843 291.891,163.893 292.940 M196.172 292.656 C 195.914 292.914,195.703 293.494,195.703 293.945 C 195.703 295.633,196.138 295.703,206.641 295.703 C 217.143 295.703,217.578 295.633,217.578 293.945 C 217.578 292.257,217.143 292.188,206.641 292.188 C 199.384 292.188,196.512 292.316,196.172 292.656 M225.391 292.969 C 224.461 293.898,224.436 294.144,225.163 295.140 C 225.793 296.003,246.816 296.543,248.900 295.750 C 250.122 295.285,250.492 294.069,249.739 292.994 C 248.872 291.756,226.626 291.733,225.391 292.969 M178.995 301.187 C 177.776 301.677,177.529 302.558,178.286 303.714 L 178.924 304.688 190.156 304.688 C 203.200 304.688,205.006 304.224,202.344 301.563 C 201.487 300.706,181.013 300.377,178.995 301.187 M211.024 301.389 C 209.949 302.142,209.923 302.892,210.938 303.906 C 212.007 304.975,233.960 305.130,235.460 304.079 C 236.476 303.368,236.581 302.262,235.714 301.395 C 234.797 300.478,212.333 300.473,211.024 301.389 M194.219 309.063 C 193.493 309.788,193.664 310.858,194.550 311.139 C 196.055 311.616,197.324 309.390,195.866 308.831 C 194.994 308.496,194.751 308.530,194.219 309.063 M202.344 309.375 C 202.344 309.590,202.080 309.766,201.758 309.766 C 200.910 309.766,201.038 311.229,201.927 311.705 C 203.009 312.284,211.051 312.230,211.641 311.641 C 212.344 310.937,212.205 309.844,211.354 309.389 C 210.371 308.863,202.344 308.850,202.344 309.375 M217.466 309.227 C 216.929 309.764,217.195 310.887,217.914 311.115 C 219.048 311.475,219.978 310.942,219.845 310.009 C 219.726 309.175,218.064 308.629,217.466 309.227 " stroke="none" fill="#faf4eb" fill-rule="evenodd"></path><path id="path2" d="M280.644 147.070 C 280.643 154.160,280.696 157.116,280.761 153.638 C 280.826 150.161,280.826 144.360,280.761 140.747 C 280.697 137.135,280.644 139.980,280.644 147.070 M135.697 145.313 C 135.697 147.998,135.760 149.097,135.836 147.754 C 135.912 146.411,135.912 144.214,135.836 142.871 C 135.760 141.528,135.697 142.627,135.697 145.313 M280.597 177.930 C 280.599 179.434,280.669 180.001,280.754 179.191 C 280.838 178.380,280.837 177.150,280.751 176.456 C 280.664 175.763,280.595 176.426,280.597 177.930 M223.535 206.930 C 224.985 207.005,227.358 207.005,228.809 206.930 C 230.259 206.855,229.072 206.794,226.172 206.794 C 223.271 206.794,222.085 206.855,223.535 206.930 " stroke="none" fill="#9a9d9a" fill-rule="evenodd"></path><path id="path3" d="M291.527 119.336 C 291.529 120.625,291.602 121.105,291.689 120.403 C 291.776 119.701,291.774 118.646,291.685 118.059 C 291.596 117.472,291.525 118.047,291.527 119.336 M121.575 120.313 C 121.575 121.064,121.655 121.372,121.754 120.996 C 121.852 120.620,121.852 120.005,121.754 119.629 C 121.655 119.253,121.575 119.561,121.575 120.313 M280.559 122.266 C 280.559 123.018,280.640 123.325,280.738 122.949 C 280.836 122.573,280.836 121.958,280.738 121.582 C 280.640 121.206,280.559 121.514,280.559 122.266 M135.700 135.547 C 135.700 138.447,135.761 139.634,135.837 138.184 C 135.912 136.733,135.912 134.360,135.837 132.910 C 135.761 131.460,135.700 132.646,135.700 135.547 M151.270 165.894 C 151.646 165.993,152.261 165.993,152.637 165.894 C 153.013 165.796,152.705 165.716,151.953 165.716 C 151.201 165.716,150.894 165.796,151.270 165.894 M135.629 174.707 C 135.553 178.597,135.817 179.659,136.561 178.455 C 136.730 178.181,136.668 178.110,136.402 178.274 C 136.094 178.465,135.928 177.364,135.838 174.526 L 135.712 170.508 135.629 174.707 M304.395 176.441 C 304.771 176.539,305.386 176.539,305.762 176.441 C 306.138 176.343,305.830 176.263,305.078 176.263 C 304.326 176.263,304.019 176.343,304.395 176.441 M115.430 177.734 C 115.562 177.949,116.056 178.122,116.527 178.119 C 117.223 178.114,117.273 178.042,116.797 177.734 C 116.027 177.237,115.122 177.237,115.430 177.734 M94.238 206.933 C 97.192 206.999,102.026 206.999,104.980 206.933 C 107.935 206.866,105.518 206.812,99.609 206.812 C 93.701 206.812,91.284 206.866,94.238 206.933 M158.713 206.932 C 161.034 207.002,164.725 207.001,166.916 206.932 C 169.106 206.862,167.207 206.806,162.695 206.806 C 158.184 206.806,156.391 206.863,158.713 206.932 M262.012 206.931 C 263.784 207.004,266.685 207.004,268.457 206.931 C 270.229 206.859,268.779 206.800,265.234 206.800 C 261.689 206.800,260.239 206.859,262.012 206.931 M286.834 206.931 C 288.509 207.005,291.146 207.004,292.694 206.930 C 294.241 206.856,292.871 206.796,289.648 206.797 C 286.426 206.797,285.159 206.858,286.834 206.931 M325.293 206.929 C 326.421 207.008,328.267 207.008,329.395 206.929 C 330.522 206.850,329.600 206.785,327.344 206.785 C 325.088 206.785,324.165 206.850,325.293 206.929 M204.459 212.251 C 204.347 212.543,204.319 213.818,204.397 215.083 L 204.540 217.383 204.614 214.772 C 204.685 212.246,204.722 212.156,205.762 211.999 L 206.836 211.836 205.749 211.777 C 205.147 211.745,204.572 211.956,204.459 212.251 M235.847 212.002 C 236.549 212.089,237.604 212.087,238.191 211.998 C 238.778 211.909,238.203 211.838,236.914 211.840 C 235.625 211.842,235.145 211.915,235.847 212.002 M270.104 231.836 C 270.104 243.008,270.154 247.522,270.215 241.867 C 270.276 236.212,270.276 227.072,270.214 221.555 C 270.153 216.037,270.103 220.664,270.104 231.836 M103.223 212.769 C 103.599 212.868,104.214 212.868,104.590 212.769 C 104.966 212.671,104.658 212.591,103.906 212.591 C 103.154 212.591,102.847 212.671,103.223 212.769 M204.440 221.289 C 204.441 223.438,204.506 224.267,204.585 223.131 C 204.664 221.996,204.664 220.238,204.583 219.225 C 204.503 218.212,204.439 219.141,204.440 221.289 M194.231 248.047 C 194.231 248.799,194.312 249.106,194.410 248.730 C 194.508 248.354,194.508 247.739,194.410 247.363 C 194.312 246.987,194.231 247.295,194.231 248.047 M195.215 261.224 C 196.128 261.306,197.622 261.306,198.535 261.224 C 199.448 261.141,198.701 261.074,196.875 261.074 C 195.049 261.074,194.302 261.141,195.215 261.224 M184.673 261.604 C 185.158 261.698,185.862 261.694,186.235 261.597 C 186.608 261.499,186.211 261.422,185.352 261.427 C 184.492 261.431,184.187 261.511,184.673 261.604 M186.838 287.401 C 189.375 287.469,193.418 287.469,195.823 287.401 C 198.228 287.332,196.152 287.277,191.211 287.277 C 186.270 287.277,184.302 287.333,186.838 287.401 M179.590 292.086 C 180.933 292.162,183.130 292.162,184.473 292.086 C 185.815 292.010,184.717 291.947,182.031 291.947 C 179.346 291.947,178.247 292.010,179.590 292.086 " stroke="none" fill="#8b8b8d" fill-rule="evenodd"></path><path id="path4" d="M205.188 102.631 C 206.215 102.712,207.797 102.711,208.703 102.629 C 209.610 102.547,208.770 102.481,206.836 102.482 C 204.902 102.484,204.161 102.551,205.188 102.631 M229.297 111.060 C 229.297 111.127,229.868 111.698,230.566 112.329 L 231.836 113.477 230.689 112.207 C 229.619 111.024,229.297 110.758,229.297 111.060 M132.602 139.844 C 132.602 149.834,132.653 153.921,132.714 148.926 C 132.776 143.931,132.776 135.757,132.714 130.762 C 132.653 125.767,132.602 129.854,132.602 139.844 M280.621 129.492 C 280.621 132.285,280.683 133.376,280.759 131.917 C 280.834 130.458,280.834 128.173,280.758 126.839 C 280.682 125.505,280.620 126.699,280.621 129.492 M135.668 128.320 C 135.670 129.609,135.743 130.090,135.830 129.388 C 135.917 128.685,135.915 127.631,135.826 127.044 C 135.737 126.457,135.666 127.031,135.668 128.320 M269.244 129.187 C 269.837 129.276,270.716 129.274,271.197 129.181 C 271.677 129.089,271.191 129.015,270.117 129.018 C 269.043 129.021,268.650 129.097,269.244 129.187 M174.350 133.984 C 174.350 135.596,174.419 136.255,174.503 135.449 C 174.588 134.644,174.588 133.325,174.503 132.520 C 174.419 131.714,174.350 132.373,174.350 133.984 M239.184 133.789 C 239.186 135.078,239.259 135.558,239.346 134.856 C 239.433 134.154,239.431 133.100,239.342 132.513 C 239.252 131.926,239.181 132.500,239.184 133.789 M198.438 146.680 C 199.166 147.432,199.851 148.047,199.958 148.047 C 200.065 148.047,199.557 147.432,198.828 146.680 C 198.099 145.928,197.415 145.313,197.308 145.313 C 197.200 145.313,197.709 145.928,198.438 146.680 M277.504 153.516 C 277.504 157.275,277.563 158.813,277.635 156.934 C 277.706 155.054,277.706 151.978,277.635 150.098 C 277.563 148.218,277.504 149.756,277.504 153.516 M135.702 155.469 C 135.702 158.584,135.763 159.858,135.837 158.301 C 135.911 156.743,135.911 154.194,135.837 152.637 C 135.763 151.079,135.702 152.354,135.702 155.469 M209.745 151.465 L 208.398 152.930 209.863 151.584 C 211.227 150.331,211.508 150.000,211.209 150.000 C 211.144 150.000,210.485 150.659,209.745 151.465 M229.666 156.152 L 228.320 157.617 229.785 156.271 C 231.149 155.018,231.430 154.688,231.131 154.688 C 231.066 154.688,230.407 155.347,229.666 156.152 M205.762 165.517 C 206.460 165.604,207.603 165.604,208.301 165.517 C 208.999 165.430,208.428 165.359,207.031 165.359 C 205.635 165.359,205.063 165.430,205.762 165.517 M111.621 166.291 C 112.104 166.384,112.896 166.384,113.379 166.291 C 113.862 166.198,113.467 166.122,112.500 166.122 C 111.533 166.122,111.138 166.198,111.621 166.291 M280.600 172.656 C 280.600 174.268,280.669 174.927,280.753 174.121 C 280.838 173.315,280.838 171.997,280.753 171.191 C 280.669 170.386,280.600 171.045,280.600 172.656 M277.485 174.609 C 277.485 176.650,277.550 177.485,277.631 176.465 C 277.711 175.444,277.711 173.774,277.631 172.754 C 277.550 171.733,277.485 172.568,277.485 174.609 M203.516 175.513 C 203.516 175.580,204.087 176.151,204.785 176.782 L 206.055 177.930 204.907 176.660 C 203.838 175.477,203.516 175.211,203.516 175.513 M293.266 177.229 C 293.752 177.323,294.455 177.319,294.829 177.222 C 295.202 177.124,294.805 177.047,293.945 177.052 C 293.086 177.056,292.780 177.136,293.266 177.229 M274.219 180.591 C 274.219 180.658,274.790 181.229,275.488 181.861 L 276.758 183.008 275.611 181.738 C 274.541 180.555,274.219 180.289,274.219 180.591 M199.536 206.933 C 202.826 206.998,208.099 206.998,211.255 206.933 C 214.410 206.867,211.719 206.814,205.273 206.814 C 198.828 206.814,196.246 206.868,199.536 206.933 M235.667 206.933 C 238.203 207.001,242.246 207.000,244.651 206.932 C 247.056 206.864,244.980 206.808,240.039 206.808 C 235.098 206.808,233.130 206.864,235.667 206.933 M216.943 213.477 C 216.944 215.840,217.008 216.756,217.086 215.513 C 217.164 214.270,217.163 212.336,217.084 211.216 C 217.006 210.096,216.942 211.113,216.943 213.477 M191.316 212.002 C 192.018 212.089,193.072 212.087,193.659 211.998 C 194.246 211.909,193.672 211.838,192.383 211.840 C 191.094 211.842,190.613 211.915,191.316 212.002 M260.320 241.602 C 260.320 245.898,260.377 247.710,260.447 245.626 C 260.517 243.543,260.518 240.027,260.448 237.814 C 260.378 235.600,260.321 237.305,260.320 241.602 M126.684 238.086 C 126.686 239.375,126.759 239.855,126.846 239.153 C 126.933 238.451,126.931 237.396,126.842 236.809 C 126.752 236.222,126.681 236.797,126.684 238.086 M252.342 250.507 L 252.536 256.445 252.647 250.812 C 252.707 247.714,252.620 245.041,252.453 244.873 C 252.285 244.705,252.236 247.240,252.342 250.507 M291.172 257.617 C 291.172 260.840,291.233 262.106,291.306 260.431 C 291.380 258.757,291.379 256.120,291.305 254.572 C 291.231 253.024,291.171 254.395,291.172 257.617 M217.081 261.219 C 217.775 261.306,219.005 261.307,219.816 261.223 C 220.626 261.138,220.059 261.067,218.555 261.066 C 217.051 261.064,216.388 261.133,217.081 261.219 M188.574 261.611 C 189.272 261.697,190.415 261.697,191.113 261.611 C 191.812 261.524,191.240 261.453,189.844 261.453 C 188.447 261.453,187.876 261.524,188.574 261.611 M227.251 261.604 C 227.737 261.698,228.440 261.694,228.813 261.597 C 229.187 261.499,228.789 261.422,227.930 261.427 C 227.070 261.431,226.765 261.511,227.251 261.604 M181.157 261.995 C 181.643 262.088,182.346 262.085,182.719 261.987 C 183.093 261.889,182.695 261.813,181.836 261.817 C 180.977 261.822,180.671 261.902,181.157 261.995 M191.504 267.077 C 192.095 267.166,193.062 267.166,193.652 267.077 C 194.243 266.987,193.760 266.914,192.578 266.914 C 191.396 266.914,190.913 266.987,191.504 267.077 M222.954 267.073 C 223.440 267.167,224.143 267.163,224.516 267.065 C 224.890 266.967,224.492 266.891,223.633 266.895 C 222.773 266.900,222.468 266.980,222.954 267.073 M181.944 295.990 C 182.863 296.072,184.269 296.071,185.069 295.987 C 185.869 295.903,185.117 295.836,183.398 295.837 C 181.680 295.838,181.025 295.907,181.944 295.990 M201.878 295.995 C 204.522 296.063,208.741 296.063,211.253 295.995 C 213.765 295.927,211.602 295.871,206.445 295.872 C 201.289 295.872,199.234 295.927,201.878 295.995 M217.198 309.167 C 216.937 309.482,216.814 309.965,216.924 310.241 C 217.049 310.551,217.138 310.477,217.157 310.046 C 217.174 309.663,217.583 309.191,218.066 308.997 C 218.661 308.757,218.740 308.635,218.310 308.619 C 217.960 308.605,217.460 308.852,217.198 309.167 " stroke="none" fill="#b7b1ac" fill-rule="evenodd"></path></g></svg>